<?xml version="1.0" encoding="UTF-8"?>
<svg width="14px" height="14px" viewBox="0 0 14 14" version="1.1" xmlns="http://www.w3.org/2000/svg" xmlns:xlink="http://www.w3.org/1999/xlink">
    <!-- Generator: Sketch 43.2 (39069) - http://www.bohemiancoding.com/sketch -->
    <title>dribbble-icon</title>
    <desc>Created with Sketch.</desc>
    <defs></defs>
    <g id="Page-1" stroke="none" stroke-width="1" fill="none" fill-rule="evenodd">
        <g id="Home" transform="translate(-1068.000000, -423.000000)" fill-rule="nonzero" fill="#FFFFFF">
            <path d="M1068,430 C1068,428.730662 1068.31268,427.559338 1068.938,426.486 C1069.56334,425.412662 1070.41268,424.563338 1071.486,423.938 C1072.55934,423.312662 1073.73068,423 1075,423 C1076.26934,423 1077.44068,423.312662 1078.514,423.938 C1079.58734,424.563338 1080.43668,425.412662 1081.062,426.486 C1081.68734,427.559338 1082,428.730662 1082,430 C1082,431.269338 1081.68734,432.440662 1081.062,433.514 C1080.43668,434.587338 1079.58734,435.436662 1078.514,436.062 C1077.44068,436.687338 1076.26934,437 1075,437 C1073.73068,437 1072.55934,436.687338 1071.486,436.062 C1070.41268,435.436662 1069.56334,434.587338 1068.938,433.514 C1068.31268,432.440662 1068,431.269338 1068,430 Z M1069.162,430 C1069.162,431.456 1069.652,432.739338 1070.632,433.85 C1071.08,432.972662 1071.78934,432.137338 1072.76,431.344 C1073.73068,430.550662 1074.678,430.051338 1075.602,429.846 C1075.462,429.519338 1075.32668,429.225338 1075.196,428.964 C1073.59068,429.477338 1071.85468,429.734 1069.988,429.734 C1069.624,429.734 1069.35334,429.729338 1069.176,429.72 C1069.176,429.757338 1069.17368,429.804 1069.169,429.86 C1069.16434,429.916 1069.162,429.962662 1069.162,430 Z M1069.344,428.558 C1069.54934,428.576662 1069.85268,428.586 1070.254,428.586 C1071.81268,428.586 1073.292,428.376 1074.692,427.956 C1073.98268,426.696 1073.20334,425.646 1072.354,424.806 C1071.61668,425.179338 1070.98434,425.697338 1070.457,426.36 C1069.92968,427.022662 1069.55868,427.755338 1069.344,428.558 Z M1071.43,434.606 C1072.48468,435.427338 1073.67468,435.838 1075,435.838 C1075.69068,435.838 1076.37668,435.707338 1077.058,435.446 C1076.87134,433.85 1076.50734,432.305338 1075.966,430.812 C1075.10734,430.998662 1074.24168,431.47 1073.369,432.226 C1072.49634,432.982 1071.85,433.775338 1071.43,434.606 Z M1073.572,424.358 C1074.39334,425.207338 1075.154,426.266662 1075.854,427.536 C1077.12334,427.004 1078.08,426.327338 1078.724,425.506 C1077.64134,424.61 1076.4,424.162 1075,424.162 C1074.524,424.162 1074.048,424.227338 1073.572,424.358 Z M1076.358,428.53 C1076.498,428.828662 1076.65668,429.206662 1076.834,429.664 C1077.52468,429.598662 1078.276,429.566 1079.088,429.566 C1079.66668,429.566 1080.24068,429.58 1080.81,429.608 C1080.73534,428.338662 1080.278,427.209338 1079.438,426.22 C1078.83134,427.125338 1077.80468,427.895338 1076.358,428.53 Z M1077.184,430.644 C1077.66,432.025338 1077.982,433.444 1078.15,434.9 C1078.88734,434.424 1079.48934,433.812662 1079.956,433.066 C1080.42268,432.319338 1080.70268,431.512 1080.796,430.644 C1080.11468,430.597338 1079.494,430.574 1078.934,430.574 C1078.42068,430.574 1077.83734,430.597338 1077.184,430.644 Z" id="dribbble-icon"></path>
        </g>
    </g>
</svg>