<?xml version="1.0" encoding="UTF-8"?>
<svg width="14px" height="14px" viewBox="0 0 14 14" version="1.1" xmlns="http://www.w3.org/2000/svg" xmlns:xlink="http://www.w3.org/1999/xlink">
    <!-- Generator: Sketch 43.2 (39069) - http://www.bohemiancoding.com/sketch -->
    <title>instagram-icon</title>
    <desc>Created with Sketch.</desc>
    <defs></defs>
    <g id="Page-1" stroke="none" stroke-width="1" fill="none" fill-rule="evenodd">
        <g id="Home" transform="translate(-1068.000000, -395.000000)" fill="#FFFFFF">
            <path d="M1075.00001,395 C1073.09891,395 1072.86053,395.008058 1072.11394,395.042124 C1071.36884,395.076107 1070.86001,395.19445 1070.41473,395.367477 C1069.95442,395.546367 1069.56405,395.78572 1069.1749,396.174871 C1068.78575,396.564049 1068.54639,396.954422 1068.3675,397.414734 C1068.19445,397.859986 1068.07614,398.368841 1068.04212,399.113909 C1068.00806,399.860533 1068,400.098914 1068,402.000014 C1068,403.901086 1068.00806,404.139467 1068.04212,404.886091 C1068.07614,405.631159 1068.19445,406.140014 1068.3675,406.585266 C1068.54639,407.045578 1068.78575,407.435951 1069.1749,407.825129 C1069.56405,408.21428 1069.95442,408.453633 1070.41473,408.632523 C1070.86001,408.80555 1071.36884,408.923893 1072.11394,408.957876 C1072.86053,408.99197 1073.09891,409 1075.00001,409 C1076.90111,409 1077.13947,408.99197 1077.88609,408.957876 C1078.63119,408.923893 1079.14001,408.80555 1079.58529,408.632523 C1080.04561,408.453633 1080.43598,408.21428 1080.82513,407.825129 C1081.21428,407.435951 1081.45363,407.045578 1081.63252,406.585266 C1081.80558,406.140014 1081.92389,405.631159 1081.9579,404.886091 C1081.99197,404.139467 1082,403.901086 1082,402.000014 C1082,400.098914 1081.99197,399.860533 1081.9579,399.113909 C1081.92389,398.368841 1081.80558,397.859986 1081.63252,397.414734 C1081.45363,396.954422 1081.21428,396.564049 1080.82513,396.174871 C1080.43598,395.78572 1080.04561,395.546367 1079.58529,395.367477 C1079.14001,395.19445 1078.63119,395.076107 1077.88609,395.042124 C1077.13947,395.008058 1076.90111,395 1075.00001,395 M1075.00001,396.261259 C1076.8691,396.261259 1077.09048,396.2684 1077.8286,396.302077 C1078.51109,396.333198 1078.88174,396.447234 1079.12843,396.543098 C1079.45514,396.670082 1079.68835,396.821769 1079.93329,397.066735 C1080.17823,397.311674 1080.32995,397.544858 1080.4569,397.8716 C1080.55277,398.118262 1080.6668,398.488906 1080.69795,399.171399 C1080.73163,399.909521 1080.73874,400.130924 1080.73874,402.000014 C1080.73874,403.869076 1080.73163,404.090479 1080.69795,404.828601 C1080.6668,405.511094 1080.55277,405.881738 1080.4569,406.1284 C1080.32995,406.455142 1080.17823,406.688326 1079.93329,406.933265 C1079.68835,407.178231 1079.45514,407.329918 1079.12843,407.456902 C1078.88174,407.552766 1078.51109,407.666802 1077.8286,407.697923 C1077.09059,407.7316 1076.86921,407.738741 1075.00001,407.738741 C1073.13081,407.738741 1072.90944,407.7316 1072.17143,407.697923 C1071.48893,407.666802 1071.11826,407.552766 1070.8716,407.456902 C1070.54489,407.329918 1070.31167,407.178231 1070.06674,406.933265 C1069.8218,406.688326 1069.67008,406.455142 1069.5431,406.1284 C1069.44726,405.881738 1069.33323,405.511094 1069.30208,404.828601 C1069.2684,404.090479 1069.26129,403.869076 1069.26129,402.000014 C1069.26129,400.130924 1069.2684,399.909521 1069.30208,399.171399 C1069.33323,398.488906 1069.44726,398.118262 1069.5431,397.8716 C1069.67008,397.544858 1069.8218,397.311674 1070.06674,397.066735 C1070.31167,396.821769 1070.54489,396.670082 1070.8716,396.543098 C1071.11826,396.447234 1071.48893,396.333198 1072.1714,396.302077 C1072.90955,396.2684 1073.13092,396.261259 1075.00001,396.261259 Z M1075.00001,404.333333 C1073.71136,404.333333 1072.66667,403.28867 1072.66667,402.000014 C1072.66667,400.71133 1073.71136,399.666667 1075.00001,399.666667 C1076.28867,399.666667 1077.33333,400.71133 1077.33333,402.000014 C1077.33333,403.28867 1076.28867,404.333333 1075.00001,404.333333 Z M1075.00001,398.405408 C1073.01478,398.405408 1071.40541,400.014749 1071.40541,402.000014 C1071.40541,403.985251 1073.01478,405.594592 1075.00001,405.594592 C1076.98525,405.594592 1078.59462,403.985251 1078.59462,402.000014 C1078.59462,400.014749 1076.98525,398.405408 1075.00001,398.405408 Z M1079.57663,398.263382 C1079.57663,397.799458 1079.20054,397.423395 1078.73665,397.423395 C1078.27272,397.423395 1077.89663,397.799458 1077.89663,398.263382 C1077.89663,398.727306 1078.27272,399.10337 1078.73665,399.10337 C1079.20054,399.10337 1079.57663,398.727306 1079.57663,398.263382 Z" id="instagram-icon"></path>
        </g>
    </g>
</svg>