<?xml version="1.0" encoding="UTF-8"?>
<svg width="14px" height="14px" viewBox="0 0 14 14" version="1.1" xmlns="http://www.w3.org/2000/svg" xmlns:xlink="http://www.w3.org/1999/xlink">
    <!-- Generator: Sketch 43.2 (39069) - http://www.bohemiancoding.com/sketch -->
    <title>linkedin-icon</title>
    <desc>Created with Sketch.</desc>
    <defs></defs>
    <g id="Page-1" stroke="none" stroke-width="1" fill="none" fill-rule="evenodd">
        <g id="Home" transform="translate(-1068.000000, -452.000000)" fill="#FFFFFF">
            <path d="M1079.92994,463.929556 L1077.85367,463.929556 L1077.85367,460.680389 C1077.85367,459.905722 1077.84044,458.909 1076.77489,458.909 C1075.69417,458.909 1075.52928,459.753278 1075.52928,460.625167 L1075.52928,463.929556 L1073.45533,463.929556 L1073.45533,457.248444 L1075.44567,457.248444 L1075.44567,458.161944 L1075.47444,458.161944 C1075.75133,457.636556 1076.42878,457.082778 1077.43872,457.082778 C1079.54144,457.082778 1079.92994,458.466056 1079.92994,460.265444 L1079.92994,463.929556 Z M1071.11422,456.335722 C1070.44728,456.335722 1069.90944,455.796333 1069.90944,455.131333 C1069.90944,454.466722 1070.44728,453.927333 1071.11422,453.927333 C1071.77844,453.927333 1072.31744,454.466722 1072.31744,455.131333 C1072.31744,455.796333 1071.77844,456.335722 1071.11422,456.335722 Z M1070.07433,463.929556 L1072.15294,463.929556 L1072.15294,457.248444 L1070.07433,457.248444 L1070.07433,463.929556 Z M1080.964,452 L1069.0325,452 C1068.46278,452 1068,452.451889 1068,453.009556 L1068,464.989667 C1068,465.547333 1068.46278,466 1069.0325,466 L1080.964,466 C1081.53489,466 1081.99961,465.547333 1081.99961,464.989667 L1081.99961,453.009556 C1081.99961,452.451889 1081.53489,452 1080.964,452 L1080.964,452 Z" id="linkedin-icon"></path>
        </g>
    </g>
</svg>