<?xml version="1.0" encoding="UTF-8"?>
<svg width="15px" height="12px" viewBox="0 0 15 12" version="1.1" xmlns="http://www.w3.org/2000/svg" xmlns:xlink="http://www.w3.org/1999/xlink">
    <!-- Generator: Sketch 43.2 (39069) - http://www.bohemiancoding.com/sketch -->
    <title>twitter-icon</title>
    <desc>Created with Sketch.</desc>
    <defs></defs>
    <g id="Page-1" stroke="none" stroke-width="1" fill="none" fill-rule="evenodd">
        <g id="Home" transform="translate(-1068.000000, -341.000000)" fill="#FFFFFF">
            <path d="M1082.646,342.420542 C1082.107,342.6615 1081.528,342.824323 1080.92,342.897417 C1081.5405,342.522873 1082.017,341.929049 1082.2415,341.221802 C1081.661,341.56862 1081.018,341.820668 1080.3335,341.956774 C1079.785,341.36799 1079.0045,341 1078.14,341 C1076.4805,341 1075.135,342.356522 1075.135,344.029112 C1075.135,344.267045 1075.162,344.497921 1075.213,344.719723 C1072.716,344.593195 1070.5015,343.387398 1069.0195,341.554505 C1068.761,342.002142 1068.613,342.522369 1068.613,343.077379 C1068.613,344.128418 1069.1435,345.055955 1069.9495,345.598866 C1069.457,345.583239 1068.994,345.447133 1068.5885,345.22029 L1068.5885,345.258097 C1068.5885,346.726024 1069.624,347.950473 1070.9985,348.228733 C1070.7465,348.297795 1070.481,348.335098 1070.207,348.335098 C1070.0135,348.335098 1069.825,348.315942 1069.6415,348.280655 C1070.024,349.483932 1071.134,350.36005 1072.4485,350.384247 C1071.4205,351.196849 1070.1245,351.681285 1068.717,351.681285 C1068.4745,351.681285 1068.235,351.666667 1068,351.638941 C1069.33,352.498425 1070.9095,353 1072.606,353 C1078.133,353 1081.1555,348.383995 1081.1555,344.380466 C1081.1555,344.249401 1081.1525,344.118841 1081.1465,343.988784 C1081.7335,343.561815 1082.243,343.027977 1082.646,342.420542" id="twitter-icon"></path>
        </g>
    </g>
</svg>