<svg id="Layer_1" data-name="Layer 1" xmlns="http://www.w3.org/2000/svg" viewBox="0 0 320 118"><defs><style>.cls-1{fill:#fff;}</style></defs><title>interim-scarves-logo</title><path class="cls-1" d="M.28,60.47l3.86-.38c2.92-.28,4.14-.94,4.14-1.69v-52c0-.75-.56-1-4.9-1.41L.28,4.61,0,3.11H28.73l-.28,1.51L24.58,5c-3.11.28-4.15,1-4.15,1.7v52c0,.75.66,1,4.81,1.41l3.11.38L28.63,62H0Z"/><path class="cls-1" d="M36.07,60.47l1.6-.09c2.73-.19,3.77-.47,3.77-1.6V33.53c0-5.84-.66-6.68-4-7.54l-2-.47.09-1.13,16.77-4.61-.19,7.82h.28c4.43-3.67,9.89-7.91,16-7.91a10.3,10.3,0,0,1,7.54,3c2.26,2.26,3.2,6.22,3.2,10.55V58.77c0,.66.28,1.13,4.52,1.6l1.32.09L85.32,62H63.1l.28-1.51,1.7-.09c3.1-.19,3.39-.85,3.39-1.6V36c0-7-2.92-9.14-7.91-9.14a14.26,14.26,0,0,0-8.29,2.83v29.2c0,.85.47,1.22,4,1.51l1.79.09L58.2,62H35.78Z"/><path class="cls-1" d="M96.71,50.77l.47-24.4-7.63-.19L91,23l6.78-5.18,8.38-6.59,1.6.19-.1,9.7H122l-1.23,5H107.54L107.07,49c-.09,5.93,2.35,8.29,7.16,8.29A12.62,12.62,0,0,0,122,54.53l.37,1.13c-4,4.24-8.76,7.54-14.41,7.54-7.44,0-11.49-4-11.3-12.43"/><path class="cls-1" d="M155.2,33.81c.09-6.31-1.79-12.24-6.6-12.24-4.43,0-8.38,4.9-9.23,12.34Zm-27.5,8.66c0-13,9.42-23,22.13-23,10.27,0,15.92,6.31,15.92,13.75a12.56,12.56,0,0,1-.28,2.64s-24.4-.19-26.19-.38a22.79,22.79,0,0,0-.19,3.58c0,10.36,5.74,17.33,14,17.33,5,0,8.95-2.07,12-7l1.13.56c-3.77,8.48-9.89,13.37-18.93,13.37-11.21,0-19.59-8.85-19.59-20.91"/><path class="cls-1" d="M174.31,60.47l1.51-.09c2.73-.19,3.77-.47,3.77-1.6V33.53c0-5.84-.66-6.68-4-7.54l-2-.47.09-1.13,16.77-4.61-.19,13.94h.28c3.2-8.95,7-14,12.72-14,3.86,0,6.78,2.45,6.78,6.41A5.93,5.93,0,0,1,204.35,32c-3.3,0-5.55-2.26-6.31-5.46-3,.85-5.37,4.43-7.63,11.58V58.87c0,.85.66,1.22,4.52,1.51l2.45.09.28,1.51H174Z"/><path class="cls-1" d="M219.7,6.69a6.73,6.73,0,0,1,13.47,0,6.73,6.73,0,0,1-13.47,0m-3.39,53.78,1.6-.09c2.73-.19,3.77-.47,3.77-1.6V33.44c0-5.75-.65-6.59-4-7.44l-2-.47.09-1.13,16.67-4.61V58.87c0,.85.57,1.13,4.43,1.51l1.32.09.28,1.51H216Z"/><path class="cls-1" d="M245.69,60.47l1.6-.09c2.74-.19,3.77-.47,3.77-1.6V33.53c0-5.84-.66-6.68-4-7.54l-2-.47.1-1.13L262,19.78l-.19,7.82h.28c4.05-3.77,9-7.91,15.07-7.91a10.76,10.76,0,0,1,7.63,3,10.79,10.79,0,0,1,2.54,5.08l.28.1c4.33-4.24,9.52-8.19,15.54-8.19a10.52,10.52,0,0,1,7.63,3c2.16,2.26,3.1,6.31,3.1,12V58.77c0,.66.19,1.13,4.52,1.6l1.32.09L320,62H297.68l.28-1.51,1.79-.09c3.11-.19,3.39-.85,3.39-1.6V36c0-6.88-2.73-9.14-7.82-9.14-3,0-6.31,1.51-7.34,3.3,0,.09-.1,3.39-.1,3.58V58.87c0,.75.28,1,4.15,1.51l1.5.09.28,1.51h-22l.28-1.51,1.7-.09c2.92-.19,3.39-.85,3.39-1.6V36c0-6.88-2.74-9.14-7.73-9.14a12.79,12.79,0,0,0-7.53,2.73V58.87c0,.85.37,1.22,4.05,1.51l1.6.09.28,1.51H245.41Z"/><path class="cls-1" d="M58.46,113.55l1.71-2.19a9.42,9.42,0,0,0,7.15,3.28c4.08,0,5.38-2.19,5.38-4,0-5.89-13.52-2.6-13.52-10.75,0-3.76,3.35-6.36,7.87-6.36a10.73,10.73,0,0,1,8.08,3.22l-1.71,2.09a8.62,8.62,0,0,0-6.61-2.74c-2.7,0-4.69,1.47-4.69,3.63,0,5.13,13.52,2.19,13.52,10.71,0,3.28-2.26,6.71-8.42,6.71a11.36,11.36,0,0,1-8.76-3.63"/><path class="cls-1" d="M87.87,105.37A11.42,11.42,0,0,1,99.61,93.56a10.13,10.13,0,0,1,8.66,4.52l-2.36,1.33a7.68,7.68,0,0,0-6.3-3.32c-5,0-8.8,3.8-8.8,9.27s3.8,9.28,8.8,9.28a7.77,7.77,0,0,0,6.3-3.32l2.4,1.3a10.29,10.29,0,0,1-8.69,4.55,11.42,11.42,0,0,1-11.74-11.81"/><path class="cls-1" d="M130.12,96.84l-4.82,12.32H135Zm7.7,19.92-2-5.1H124.44l-2,5.1h-3.25l9.21-22.83h3.52l9.17,22.83Z"/><path class="cls-1" d="M167.07,100.81a4.25,4.25,0,0,0-4.59-4.35h-6v8.72h6a4.3,4.3,0,0,0,4.59-4.38m-.21,15.95-5.78-9.07h-4.59v9.07h-2.84V93.94h9.18c4.17,0,7.18,2.67,7.18,6.88a6.33,6.33,0,0,1-6,6.64l6.16,9.31Z"/><polygon class="cls-1" points="189.91 116.76 180.71 93.94 183.96 93.94 191.66 113.65 199.36 93.94 202.61 93.94 193.44 116.76 189.91 116.76"/><polygon class="cls-1" points="214.5 116.76 214.5 93.94 229.46 93.94 229.46 96.47 217.34 96.47 217.34 103.83 229.22 103.83 229.22 106.36 217.34 106.36 217.34 114.23 229.46 114.23 229.46 116.76 214.5 116.76"/><path class="cls-1" d="M241.52,113.55l1.71-2.19a9.42,9.42,0,0,0,7.15,3.28c4.08,0,5.38-2.19,5.38-4,0-5.89-13.52-2.6-13.52-10.75,0-3.76,3.35-6.36,7.87-6.36a10.73,10.73,0,0,1,8.08,3.22l-1.71,2.09a8.62,8.62,0,0,0-6.61-2.74c-2.7,0-4.69,1.47-4.69,3.63,0,5.13,13.52,2.19,13.52,10.71,0,3.28-2.26,6.71-8.42,6.71a11.35,11.35,0,0,1-8.76-3.63"/></svg>